<svg width="4884" height="1377" viewBox="0 0 4884 1377" fill="none" xmlns="http://www.w3.org/2000/svg">
<path d="M736.632 650.108C719.427 639.838 719.427 614.162 736.632 603.892L985.019 455.615C1002.22 445.344 1023.73 458.182 1023.73 478.723V775.277C1023.73 795.818 1002.22 808.656 985.019 798.385L736.632 650.108Z" fill="url(#paint0_linear_201_2)"/>
<path fill-rule="evenodd" clip-rule="evenodd" d="M962.788 881.382C976.215 889.334 979.852 906.73 969.842 918.492C887.301 1015.48 764.335 1077 627 1077C378.472 1077 177 875.528 177 627C177 378.472 378.472 177 627 177C763.329 177 885.499 237.624 968.022 333.383C978.122 345.103 974.566 362.549 961.149 370.562L795.516 469.477C791.256 472.021 786.35 473.368 781.345 473.368H704.286C700.406 473.368 696.584 472.53 693.004 471.082C672.342 462.728 649.665 458.114 625.875 458.114C529.57 458.114 451.5 533.727 451.5 627C451.5 720.273 529.57 795.886 625.875 795.886C651.368 795.886 675.584 790.588 697.411 781.066C701.2 779.413 705.283 778.453 709.437 778.453H781.399C786.37 778.453 791.244 779.782 795.485 782.294L962.788 881.382Z" fill="url(#paint1_linear_201_2)"/>
<path d="M1201 54C1201 151.754 1280.25 231 1378 231C1280.25 231 1201 310.246 1201 408C1201 310.246 1121.75 231 1024 231C1121.75 231 1201 151.754 1201 54Z" fill="#FFA500"/>
<path d="M177 0C177 97.7544 256.246 177 354 177C256.246 177 177 256.246 177 354C177 256.246 97.7544 177 0 177C97.7544 177 177 97.7544 177 0Z" fill="#FFA500"/>
<path d="M354 1023C354 1120.75 433.246 1200 531 1200C433.246 1200 354 1279.25 354 1377C354 1279.25 274.754 1200 177 1200C274.754 1200 354 1120.75 354 1023Z" fill="#FF0000"/>
<path d="M1090 629L1298 628" stroke="#FF0000" stroke-width="30" stroke-linecap="round"/>
<path d="M1090 711L1258.62 806.82" stroke="#FF0000" stroke-width="30" stroke-linecap="round"/>
<path d="M1082 529.965L1257.77 448" stroke="#FF0000" stroke-width="30" stroke-linecap="round"/>
<path d="M4871.01 639.259H4711.41C4710.57 629.415 4707.12 620.932 4701.04 613.81C4694.97 606.689 4687.11 601.243 4677.48 597.473C4668.05 593.493 4657.58 591.504 4646.06 591.504C4631.19 591.504 4618.41 594.226 4607.73 599.672C4597.05 605.118 4591.81 612.868 4592.02 622.922C4591.81 630.043 4594.85 636.641 4601.13 642.715C4607.63 648.789 4620.09 653.502 4638.52 656.853L4736.54 674.447C4785.98 683.454 4822.74 698.639 4846.82 720.004C4871.12 741.159 4883.37 769.54 4883.58 805.147C4883.37 839.497 4873.11 869.345 4852.79 894.689C4832.68 919.823 4805.14 939.302 4770.16 953.126C4735.39 966.741 4695.7 973.548 4651.09 973.548C4577.36 973.548 4519.65 958.467 4477.97 928.306C4436.5 898.145 4413.36 858.348 4408.54 808.917H4580.71C4583.01 824.207 4590.56 836.041 4603.33 844.42C4616.32 852.588 4632.66 856.673 4652.34 856.673C4668.26 856.673 4681.35 853.95 4691.62 848.504C4702.09 843.058 4707.43 835.308 4707.64 825.255C4707.43 816.039 4702.82 808.708 4693.82 803.262C4685.02 797.816 4671.2 793.418 4652.34 790.066L4566.89 774.986C4517.66 766.398 4480.8 750.06 4456.29 725.973C4431.79 701.886 4419.64 670.887 4419.85 632.975C4419.64 599.463 4428.44 571.082 4446.24 547.832C4464.25 524.373 4489.91 506.57 4523.22 494.421C4556.73 482.064 4596.42 475.885 4642.29 475.885C4712.04 475.885 4767.02 490.337 4807.24 519.242C4847.66 548.146 4868.92 588.152 4871.01 639.259Z" fill="white"/>
<path d="M4041.66 972.292C4010.87 972.292 3983.64 967.265 3959.97 957.211C3936.51 946.948 3918.08 931.448 3904.67 910.712C3891.27 889.976 3884.56 863.585 3884.56 831.538C3884.56 805.147 3889.07 782.631 3898.07 763.989C3907.08 745.138 3919.65 729.743 3935.78 717.805C3951.9 705.866 3970.65 696.754 3992.01 690.471C4013.59 684.187 4036.84 680.103 4061.76 678.218C4088.78 676.123 4110.46 673.61 4126.8 670.677C4143.35 667.535 4155.28 663.242 4162.62 657.796C4169.95 652.141 4173.61 644.705 4173.61 635.489V634.232C4173.61 621.665 4168.79 612.03 4159.16 605.328C4149.52 598.625 4137.17 595.274 4122.09 595.274C4105.54 595.274 4092.03 598.939 4081.56 606.27C4071.29 613.392 4065.11 624.388 4063.02 639.259H3903.42C3905.51 609.936 3914.83 582.916 3931.38 558.2C3948.13 533.275 3972.54 513.377 4004.58 498.506C4036.63 483.425 4076.63 475.885 4124.6 475.885C4159.16 475.885 4190.16 479.969 4217.6 488.138C4245.04 496.097 4268.39 507.303 4287.66 521.755C4306.93 535.998 4321.59 552.754 4331.65 572.024C4341.91 591.085 4347.04 611.821 4347.04 634.232V964.751H4184.92V896.888H4181.15C4171.52 914.901 4159.79 929.458 4145.96 940.559C4132.35 951.66 4116.74 959.724 4099.15 964.751C4081.77 969.778 4062.6 972.292 4041.66 972.292ZM4098.21 862.956C4111.4 862.956 4123.76 860.233 4135.28 854.788C4147.01 849.342 4156.54 841.487 4163.87 831.224C4171.2 820.961 4174.87 808.498 4174.87 793.836V753.621C4170.26 755.506 4165.34 757.287 4160.1 758.962C4155.08 760.638 4149.63 762.209 4143.76 763.675C4138.11 765.141 4132.04 766.503 4125.54 767.759C4119.26 769.016 4112.66 770.168 4105.75 771.215C4092.34 773.31 4081.35 776.766 4072.76 781.583C4064.38 786.191 4058.1 791.951 4053.91 798.863C4049.93 805.566 4047.94 813.106 4047.94 821.484C4047.94 834.889 4052.65 845.153 4062.08 852.274C4071.5 859.396 4083.55 862.956 4098.21 862.956Z" fill="white"/>
<path d="M3546.02 964.751V482.168H3714.42V573.909H3719.45C3728.25 539.978 3742.18 515.157 3761.24 499.448C3780.51 483.739 3803.02 475.885 3828.79 475.885C3836.33 475.885 3843.76 476.513 3851.09 477.77C3858.63 478.817 3865.86 480.388 3872.77 482.483V630.462C3864.18 627.53 3853.61 625.33 3841.04 623.864C3828.47 622.398 3817.69 621.665 3808.68 621.665C3791.71 621.665 3776.42 625.54 3762.81 633.29C3749.4 640.83 3738.83 651.512 3731.08 665.336C3723.33 678.951 3719.45 694.974 3719.45 713.406V964.751H3546.02Z" fill="white"/>
<path d="M3238.99 973.548C3187.46 973.548 3143.06 963.704 3105.78 944.015C3068.7 924.117 3040.11 895.631 3020.01 858.558C3000.11 821.275 2990.16 776.661 2990.16 724.716C2990.16 674.866 3000.21 631.3 3020.32 594.017C3040.43 556.734 3068.81 527.725 3105.46 506.989C3142.12 486.253 3185.37 475.885 3235.22 475.885C3271.67 475.885 3304.65 481.54 3334.19 492.851C3363.72 504.161 3388.96 520.603 3409.91 542.177C3430.85 563.541 3446.98 589.514 3458.29 620.094C3469.6 650.674 3475.26 685.13 3475.26 723.46V763.675H3044.2V668.164H3315.65C3315.44 654.34 3311.88 642.191 3304.97 631.719C3298.27 621.037 3289.15 612.763 3277.63 606.898C3266.32 600.824 3253.44 597.787 3238.99 597.787C3224.96 597.787 3212.08 600.824 3200.35 606.898C3188.62 612.763 3179.19 620.932 3172.07 631.405C3165.16 641.877 3161.49 654.13 3161.07 668.164V771.215C3161.07 786.715 3164.32 800.539 3170.81 812.687C3177.31 824.836 3186.63 834.366 3198.78 841.278C3210.92 848.19 3225.59 851.646 3242.76 851.646C3254.7 851.646 3265.59 849.97 3275.44 846.619C3285.49 843.268 3294.08 838.45 3301.2 832.167C3308.32 825.673 3313.56 817.924 3316.91 808.917H3475.26C3469.81 842.43 3456.93 871.544 3436.61 896.26C3416.29 920.766 3389.38 939.826 3355.87 953.441C3322.56 966.846 3283.6 973.548 3238.99 973.548Z" fill="white"/>
<path d="M2609.21 693.298V964.751H2435.78V482.168H2600.41V573.909H2605.44C2615.91 543.329 2634.34 519.347 2660.74 501.962C2687.34 484.577 2718.34 475.885 2753.73 475.885C2787.87 475.885 2817.51 483.739 2842.65 499.448C2867.99 514.948 2887.57 536.312 2901.4 563.541C2915.43 590.77 2922.34 621.874 2922.13 656.853V964.751H2748.71V693.298C2748.92 669.421 2742.84 650.674 2730.48 637.06C2718.34 623.445 2701.37 616.638 2679.59 616.638C2665.34 616.638 2652.88 619.78 2642.2 626.064C2631.73 632.138 2623.66 640.935 2618.01 652.455C2612.35 663.765 2609.42 677.38 2609.21 693.298Z" fill="white"/>
<path d="M2173.99 964.753V482.17H2347.42V964.753H2173.99ZM2260.7 431.901C2237.25 431.901 2217.14 424.151 2200.38 408.652C2183.63 393.152 2175.25 374.511 2175.25 352.727C2175.25 330.944 2183.63 312.303 2200.38 296.803C2217.14 281.304 2237.25 273.554 2260.7 273.554C2284.37 273.554 2304.48 281.304 2321.03 296.803C2337.78 312.303 2346.16 330.944 2346.16 352.727C2346.16 374.511 2337.78 393.152 2321.03 408.652C2304.48 424.151 2284.37 431.901 2260.7 431.901Z" fill="white"/>
<path d="M2092.23 562.604H1915.03C1913.77 547.942 1910.42 534.642 1904.98 522.703C1899.74 510.764 1892.41 500.501 1882.98 491.913C1873.77 483.116 1862.56 476.414 1849.37 471.806C1836.17 466.988 1821.19 464.579 1804.44 464.579C1775.11 464.579 1750.29 471.701 1729.98 485.944C1709.87 500.187 1694.58 520.609 1684.11 547.209C1673.84 573.81 1668.71 605.752 1668.71 643.035C1668.71 682.412 1673.95 715.401 1684.42 742.002C1695.1 768.393 1710.5 788.291 1730.61 801.696C1750.71 814.892 1774.91 821.49 1803.18 821.49C1819.31 821.49 1833.76 819.5 1846.54 815.52C1859.32 811.331 1870.42 805.362 1879.84 797.612C1889.27 789.862 1896.91 780.541 1902.78 769.65C1908.85 758.549 1912.94 746.086 1915.03 732.262L2092.23 733.519C2090.13 760.748 2082.49 788.501 2069.29 816.777C2056.1 844.844 2037.35 870.816 2013.06 894.694C1988.97 918.362 1959.12 937.423 1923.51 951.875C1887.91 966.327 1846.54 973.554 1799.41 973.554C1740.35 973.554 1687.35 960.882 1640.44 935.538C1593.73 910.194 1556.76 872.911 1529.53 823.689C1502.51 774.467 1489 714.249 1489 643.035C1489 571.401 1502.82 511.078 1530.47 462.066C1558.12 412.844 1595.4 375.666 1642.32 350.532C1689.24 325.188 1741.6 312.516 1799.41 312.516C1840.05 312.516 1877.43 318.066 1911.57 329.167C1945.72 340.268 1975.67 356.501 2001.43 377.865C2027.19 399.02 2047.93 425.097 2063.64 456.097C2079.35 487.096 2088.88 522.598 2092.23 562.604Z" fill="white"/>
<defs>
<linearGradient id="paint0_linear_201_2" x1="723.729" y1="627" x2="1023.73" y2="627" gradientUnits="userSpaceOnUse">
<stop stop-color="#FFA500"/>
<stop offset="1" stop-color="#FF0000"/>
</linearGradient>
<linearGradient id="paint1_linear_201_2" x1="627" y1="177" x2="627" y2="1077" gradientUnits="userSpaceOnUse">
<stop stop-color="#FFA500"/>
<stop offset="1" stop-color="#FF0000"/>
</linearGradient>
</defs>
</svg>
